<svg width="24" height="24" viewBox="0 0 24 24" fill="none" xmlns="http://www.w3.org/2000/svg">
<path d="M5.88402 18.653C5.58402 18.453 5.32602 18.198 5.02402 17.837C4.86729 17.6451 4.71195 17.4521 4.55802 17.258C4.09502 16.683 3.80302 16.417 3.50202 16.308C3.37537 16.2661 3.25839 16.1992 3.15797 16.1114C3.05754 16.0236 2.9757 15.9166 2.91726 15.7967C2.85883 15.6767 2.82498 15.5463 2.81771 15.4131C2.81044 15.2799 2.8299 15.1466 2.87493 15.021C2.91997 14.8954 2.98968 14.7802 3.07996 14.6819C3.17023 14.5837 3.27924 14.5045 3.40058 14.4491C3.52192 14.3936 3.65312 14.363 3.78647 14.3591C3.91981 14.3551 4.0526 14.3778 4.17702 14.426C4.92902 14.696 5.43802 15.161 6.12402 16.014C6.03002 15.897 6.46402 16.441 6.55702 16.553C6.74702 16.78 6.88702 16.918 6.99702 16.991C7.20102 17.128 7.58502 17.187 8.14702 17.131C8.17102 16.749 8.24102 16.378 8.34902 16.036C5.38102 15.31 3.70102 13.396 3.70102 9.63998C3.70102 8.39998 4.07102 7.28398 4.75902 6.34798C4.54102 5.45398 4.57402 4.37298 5.06102 3.15598C5.11629 3.01831 5.20149 2.89467 5.31046 2.79401C5.41942 2.69335 5.54942 2.61819 5.69102 2.57398C5.77202 2.54998 5.81802 2.53898 5.89902 2.52698C6.70202 2.40298 7.83602 2.69698 9.31402 3.62298C10.1948 3.41679 11.0965 3.31343 12.001 3.31498C12.913 3.31498 13.82 3.41898 14.685 3.62298C16.162 2.68998 17.299 2.39598 18.107 2.52698C18.1924 2.54031 18.265 2.55698 18.325 2.57698C18.4639 2.62276 18.591 2.69841 18.6974 2.79862C18.8038 2.89883 18.887 3.02116 18.941 3.15698C19.428 4.37298 19.461 5.45298 19.243 6.34698C19.934 7.28298 20.301 8.39198 20.301 9.63998C20.301 13.397 18.627 15.305 15.659 16.032C15.784 16.447 15.849 16.91 15.849 17.412C15.849 18.077 15.847 18.711 15.842 19.422C15.842 19.612 15.84 19.816 15.837 20.128C16.0616 20.1769 16.2625 20.3016 16.4059 20.4813C16.5493 20.6609 16.6264 20.8845 16.6243 21.1143C16.6222 21.3441 16.541 21.5662 16.3943 21.7432C16.2476 21.9202 16.0445 22.0412 15.819 22.086C14.679 22.313 13.835 21.554 13.835 20.561L13.837 20.114L13.842 19.409C13.847 18.702 13.85 18.072 13.85 17.412C13.85 16.715 13.666 16.26 13.424 16.051C12.763 15.481 13.098 14.397 13.965 14.3C16.931 13.967 18.301 12.818 18.301 9.63998C18.301 8.68498 17.989 7.89598 17.388 7.23598C17.2615 7.09692 17.1768 6.92503 17.1436 6.74002C17.1103 6.55501 17.1299 6.36438 17.2 6.18998C17.366 5.77598 17.436 5.23298 17.295 4.57598L17.285 4.57898C16.794 4.71798 16.175 5.01898 15.427 5.52798C15.3064 5.60983 15.1694 5.66433 15.0255 5.68765C14.8816 5.71097 14.7343 5.70255 14.594 5.66298C13.75 5.42895 12.8779 5.31152 12.002 5.31398C11.112 5.31398 10.23 5.43198 9.41002 5.66398C9.27039 5.70308 9.12392 5.71135 8.98078 5.68822C8.83763 5.66508 8.70123 5.61108 8.58102 5.52998C7.82802 5.02298 7.20702 4.72298 6.71102 4.58298C6.56802 5.23598 6.63902 5.77698 6.80402 6.18998C6.87383 6.36434 6.89313 6.55483 6.8597 6.73964C6.82628 6.92445 6.74148 7.09612 6.61502 7.23498C6.01802 7.88998 5.70202 8.69298 5.70202 9.63898C5.70202 12.811 7.07302 13.967 10.024 14.299C10.889 14.396 11.226 15.476 10.569 16.047C10.376 16.215 10.139 16.779 10.139 17.411V20.561C10.139 21.546 9.30502 22.286 8.17902 22.089C7.95079 22.0489 7.74356 21.9308 7.59274 21.7549C7.44192 21.579 7.35689 21.3561 7.35217 21.1244C7.34744 20.8928 7.42332 20.6666 7.56684 20.4847C7.71036 20.3028 7.91261 20.1763 8.13902 20.127V19.137C7.22902 19.198 6.47802 19.049 5.88502 18.652" fill="white"/>
</svg>
