<svg width="24" height="24" viewBox="0 0 24 24" fill="none" xmlns="http://www.w3.org/2000/svg">
<path d="M12 20.5C13.81 20.5 15.545 20.321 17.153 19.993C19.163 19.583 20.167 19.379 21.083 18.201C22 17.022 22 15.669 22 12.963V11.037C22 8.33097 22 6.97697 21.083 5.79897C20.167 4.62097 19.163 4.41598 17.153 4.00698C15.4565 3.66693 13.7303 3.49709 12 3.49998C10.19 3.49998 8.455 3.67898 6.847 4.00698C4.837 4.41698 3.833 4.62097 2.917 5.79897C2 6.97797 2 8.33097 2 11.037V12.963C2 15.669 2 17.023 2.917 18.201C3.833 19.379 4.837 19.584 6.847 19.993C8.455 20.321 10.19 20.5 12 20.5Z" stroke="white" stroke-width="1.5" stroke-linecap="round" stroke-linejoin="round"/>
<path d="M15.962 12.313C15.814 12.919 15.024 13.353 13.445 14.224C11.727 15.171 10.868 15.644 10.173 15.461C9.94139 15.4012 9.72501 15.2931 9.538 15.144C9 14.709 9 13.806 9 12C9 10.194 9 9.29098 9.538 8.85598C9.72 8.70898 9.938 8.59998 10.173 8.53898C10.868 8.35598 11.727 8.82898 13.445 9.77598C15.025 10.646 15.814 11.081 15.962 11.687C16.012 11.893 16.012 12.107 15.962 12.313Z" stroke="white" stroke-width="1.5" stroke-linecap="round" stroke-linejoin="round"/>
</svg>
