<svg width="68" height="68" viewBox="0 0 68 68" fill="none" xmlns="http://www.w3.org/2000/svg">
<path d="M19.6634 14.1667C19.6626 15.6696 19.0649 17.1106 18.0016 18.1728C16.9384 19.2349 15.4967 19.8312 13.9939 19.8305C12.491 19.8297 11.0499 19.232 9.98774 18.1688C8.92557 17.1055 8.32927 15.6639 8.33002 14.161C8.33077 12.6581 8.92851 11.2171 9.99175 10.1549C11.055 9.09271 12.4966 8.49641 13.9995 8.49716C15.5024 8.49791 16.9435 9.09566 18.0056 10.1589C19.0678 11.2221 19.6641 12.6638 19.6634 14.1667ZM19.8334 24.0267H8.50002V59.5H19.8334V24.0267ZM37.74 24.0267H26.4634V59.5H37.6267V40.885C37.6267 30.515 51.1417 29.5517 51.1417 40.885V59.5H62.3333V37.0317C62.3333 19.55 42.33 20.2017 37.6267 28.7867L37.74 24.0267Z" fill="black"/>
</svg>
