<svg width="102" height="102" viewBox="0 0 102 102" fill="none" xmlns="http://www.w3.org/2000/svg">
<path d="M42.5 63.75L64.5575 51L42.5 38.25V63.75ZM91.63 30.4725C92.1825 32.47 92.565 35.1475 92.82 38.5475C93.1175 41.9475 93.245 44.88 93.245 47.43L93.5 51C93.5 60.3075 92.82 67.15 91.63 71.5275C90.5675 75.3525 88.1025 77.8175 84.2775 78.88C82.28 79.4325 78.625 79.815 73.015 80.07C67.49 80.3675 62.4325 80.495 57.7575 80.495L51 80.75C33.1925 80.75 22.1 80.07 17.7225 78.88C13.8975 77.8175 11.4325 75.3525 10.37 71.5275C9.8175 69.53 9.435 66.8525 9.18 63.4525C8.8825 60.0525 8.755 57.12 8.755 54.57L8.5 51C8.5 41.6925 9.18 34.85 10.37 30.4725C11.4325 26.6475 13.8975 24.1825 17.7225 23.12C19.72 22.5675 23.375 22.185 28.985 21.93C34.51 21.6325 39.5675 21.505 44.2425 21.505L51 21.25C68.8075 21.25 79.9 21.93 84.2775 23.12C88.1025 24.1825 90.5675 26.6475 91.63 30.4725Z" fill="black"/>
</svg>
